<svg width="48" height="50" viewBox="0 0 48 50" fill="none" xmlns="http://www.w3.org/2000/svg">
<path d="M24.3348 24.8925C24.3348 21.2107 27.3195 18.2258 31.0014 18.2258C34.6832 18.2258 37.668 21.2107 37.668 24.8925C37.668 28.5744 34.6832 31.5591 31.0014 31.5591C27.3195 31.5591 24.3348 28.5744 24.3348 24.8925Z" fill="#1ABCFE"/>
<path d="M11 38.2259C11 34.5441 13.9847 31.5593 17.6666 31.5593H24.3332V38.2259C24.3332 41.9078 21.3485 44.8926 17.6666 44.8926C13.9847 44.8926 11 41.9078 11 38.2259Z" fill="#0ACF83"/>
<path d="M24.3348 4.89258V18.2258H31.0014C34.6833 18.2258 37.668 15.2411 37.668 11.5592C37.668 7.87734 34.6833 4.89258 31.0014 4.89258H24.3348Z" fill="#FF7262"/>
<path d="M11 11.5592C11 15.2411 13.9847 18.2258 17.6666 18.2258H24.3332V4.89258H17.6666C13.9847 4.89258 11 7.87734 11 11.5592Z" fill="#F24E1E"/>
<path d="M11 24.8925C11 28.5744 13.9847 31.5591 17.6666 31.5591H24.3332V18.2258H17.6666C13.9847 18.2258 11 21.2107 11 24.8925Z" fill="#A259FF"/>
</svg>
