<?xml version="1.0" encoding="UTF-8"?>
<svg id="katman_2" data-name="katman 2" xmlns="http://www.w3.org/2000/svg" viewBox="0 0 182.4 169.35">
  <defs>
    <style>
      .cls-1 {
        fill: #5495ca;
      }

      .cls-2 {
        fill: #fefeff;
      }

      .cls-3 {
        fill: #f3f8fc;
      }

      .cls-4 {
        fill: #508ac4;
      }

      .cls-5 {
        fill: #4c8ac5;
      }

      .cls-6 {
        fill: #4e84be;
      }

      .cls-7 {
        fill: #566eb0;
      }

      .cls-8 {
        fill: #4f99cf;
      }

      .cls-9 {
        fill: #5d64a6;
      }

      .cls-10 {
        fill: #5077b7;
      }

      .cls-11 {
        fill: #fdfefe;
      }

      .cls-12 {
        fill: #566dae;
      }

      .cls-13 {
        fill: #4e85c0;
      }

      .cls-14 {
        fill: #fefefe;
      }

      .cls-15 {
        fill: #517cba;
      }

      .cls-16 {
        fill: #9fb1d4;
      }

      .cls-17 {
        fill: #589acd;
      }

      .cls-18 {
        fill: #5680ba;
      }

      .cls-19 {
        fill: #566aac;
      }

      .cls-20 {
        fill: #537cb9;
      }

      .cls-21 {
        fill: #52abdc;
      }

      .cls-22 {
        fill: #fff;
      }

      .cls-23 {
        fill: #4a8cc7;
      }

      .cls-24 {
        fill: #fdfdfd;
      }

      .cls-25 {
        fill: #59a9d9;
      }

      .cls-26 {
        fill: #5799cc;
      }

      .cls-27 {
        fill: #596db0;
      }

      .cls-28 {
        fill: #5197cd;
      }

      .cls-29 {
        fill: #576eb2;
      }

      .cls-30 {
        fill: #606192;
      }

      .cls-31 {
        fill: #f9fcfd;
      }

      .cls-32 {
        fill: #5473b3;
      }

      .cls-33 {
        fill: #547bb8;
      }

      .cls-34 {
        fill: #5879b0;
      }

      .cls-35 {
        fill: #4e86c1;
      }

      .cls-36 {
        fill: #576aad;
      }

      .cls-37 {
        fill: #5c5aa2;
      }

      .cls-38 {
        fill: #52a3d6;
      }

      .cls-39 {
        fill: #537ab9;
      }

      .cls-40 {
        fill: #5182bf;
      }

      .cls-41 {
        fill: #4e81be;
      }

      .cls-42 {
        fill: #5e7bad;
      }

      .cls-43 {
        fill: #5285c0;
      }

      .cls-44 {
        fill: #6171a0;
      }

      .cls-45 {
        fill: #fcfdfe;
      }

      .cls-46 {
        fill: #4f7cbb;
      }

      .cls-47 {
        fill: #4d93ca;
      }

      .cls-48 {
        fill: #539fd2;
      }

      .cls-49 {
        fill: #5480bc;
      }

      .cls-50 {
        fill: #468bb9;
      }

      .cls-51 {
        fill: #56a4d5;
      }

      .cls-52 {
        fill: #507dba;
      }

      .cls-53 {
        fill: #5f5ca2;
      }

      .cls-54 {
        fill: #556aae;
      }

      .cls-55 {
        fill: #567dba;
      }

      .cls-56 {
        fill: #5271b3;
      }

      .cls-57 {
        fill: #509fd4;
      }

      .cls-58 {
        fill: #5c7cb8;
      }

      .cls-59 {
        fill: #625ba1;
      }

      .cls-60 {
        fill: #587eb7;
      }

      .cls-61 {
        fill: #615da2;
      }

      .cls-62 {
        fill: #509dd1;
      }

      .cls-63 {
        fill: #4d9ed3;
      }

      .cls-64 {
        fill: #4f85c0;
      }

      .cls-65 {
        fill: #50a6d8;
      }

      .cls-66 {
        fill: #4e7fbd;
      }

      .cls-67 {
        fill: #5668ac;
      }

      .cls-68 {
        fill: #fefffe;
      }

      .cls-69 {
        fill: #5682bd;
      }

      .cls-70 {
        fill: #5181bc;
      }

      .cls-71 {
        fill: #676ea1;
      }

      .cls-72 {
        fill: #4e94cb;
      }

      .cls-73 {
        fill: #4d82bf;
      }

      .cls-74 {
        fill: #5081bc;
      }

      .cls-75 {
        fill: #4f7aba;
      }

      .cls-76 {
        fill: #5e60a5;
      }

      .cls-77 {
        fill: #4b6aa1;
      }

      .cls-78 {
        fill: #547cb9;
      }
    </style>
  </defs>
  <g id="katman_1" data-name="katman 1">
    <g>
      <path class="cls-47" d="M65.95,72.49c.41.26.52.64.33,1.13l32.78-.11c1.58.1,3.14.37,4.67.79.91-.56,2.13-1.17,1.82.36l-.25.73H28.62l-.45-.73c1.05.18.96,4.83.73,5.67l-.73.51,2.1-.56c6.24.16,12.45.31,18.65.44l1.04.48,3.95.18-.11.93,3.06-.08c1.48-.15,2.33.23,2.55,1.14-10.33,1.18-20.9,1.1-31.24,0,.3-.04.71.03.73.24.25,4.72.29,10.97,0,15.67l-.73.43c.41-1.04,3.69-1.17,4,0l.08.79c-1.74.13-3.44.37-5.11.73l-.05,8.85-.73.52c-.1.32-.22.31-.36,0-1.01-5.42-.99-10.92,0-16.35-.03.28-.12.7-.31.73-1.36.15-4.89.15-6.26,0l-.51-.73c.07,2.66.13,5.41.18,8.24l-.73.48c-.23,2.72-.29,5.44-.2,8.18l-.88-.03v34.26s-.73.44-.73.44c-.83.65-1.09-.05-1.13-.93l.03-50.43c.01-1.07,1.76-3.69,2.74-2.39.04-.28.11-.69.32-.73.72-.11,6.35-.14,6.96,0l.52.73c-1.14-.21-1.09-3.33,0-3.63-.08.28-.2.7-.42.73-.96.1-7.73.17-8.31,0l-.53-.73-.16.76c-1.37.75-2.54,2.21-2.94,3.75.33,13.62.09,27.25-.71,40.89-.5.31-.9.28-1.2-.09l.17,16.09c-.01.91-.15,1.64-1.15,1.43v-57.93c-.4-2.31,3.61-7.09,5.63-7.09h9.08s.54-.51.54-.54v-11.26c0-.44,1.57-2.28,2.34-2.02,12.54.02,25.08.04,37.61.02Z"/>
      <path class="cls-23" d="M115.71,2.39c11.87-.32,23.75-.34,35.65-.06,1.44-.8,3.2-.71,4.67.06,1.55.52,1.46.91,1.82,2.18-.62.6-1.22.72-1.82.36l-.13.47c-12.83-.19-26.97-.13-40.14-.05l-.07,1.41c11.85-.06,23.76-.05,35.62.1.99.01,1.96.31,2.9.62.2.59.14.94-.46,1,1.31,0,2.07.39,2.28,1.17l-.25.73-40.06.08.17,20.56c.49.22.63.59.55,1.16,1.22,1.54,1.22,2.39,0,2.54l-.96.16c-4.21-2.38-5.89-.13-6.3,4.09l-.73.47c-1.02-.05-.8.77.66,2.46l-.3.81c-4.76-2.51-2.07-10.26,2.37-11.62,1.58-.48-.14-.81-.66-1.15-2.67-1.73-8.06-3.99-8.81-7.18-1.64-6.99,5.77-10.93,11.1-6.56V4.38c0-1.1,1.89-1.89,2.91-2Z"/>
      <path class="cls-10" d="M106.63,72.85c.34.22,1.37,1.19,1.46,1.63.63,3.21-.48,8.37,0,11.81h9.26c1.52,0,4.22,2.58,4.9,4,.34.89-.77,1.24-1.45,1.45-.24.13-.56.27-.77.13-.63-.42-2.74-2.69-3.04-3.4-.08.28-.2.71-.42.73-2.07.18-5.89.18-7.96,0l-.52-.73c1.14.21,1.09,3.33,0,3.63.04-.28.11-.69.32-.73.72-.11,6.35-.14,6.96,0l.52.73c.54-1.1,1.66.14,2.04.98.66,1.46.54,9.93.33,11.9l-.73.56c-.64.07-.94-.1-1.1-.66l-.35,40.18-.73.44-.73-.25v-50.52l.73-.44c-.08.28-.2.7-.42.73-1.4.15-4.93.15-6.33,0l-.52-.73.73.25v50.52l-.73.44c-.56.32-1.01.27-1.08-.35l.02-32.56c-.45-.58-.7-1.35-.75-2.33-.1-2.84-.22-5.63-.36-8.35-14.04-.29-28.14-.36-42.28-.19-1.53.1-3.85-.21-2.28-1.8l35.12-.18c2.85-.75,5.79-.87,8.72-.65v-15.27s.72-.43.72-.43c-6.32-.24-12.76-.32-19.33-.24-.36-.64-.19-1.07.49-1.21,4-.25,7.97-.5,11.93-.73,1.98-.75,4.05-.78,6.13-.75-.09-2.03.05-3.96.4-5.78-.31-.58-1.23-.35-1.82-.36-.82-1.5,1.73-1.84,2.91-1.45Z"/>
      <path class="cls-56" d="M156.03,55.78c.43-.52,1.01-.4,1.73.37.47,7.01.5,14.03.09,21.06-.1.85-.7,2.18-1.63,2.18h-22.34c3.76,2.79,9.45,5.97,14.07,6.81,1.46.27,3.01-.19,4.42.48l-.54,2.5c1.47,1.72,6.85,5.53,7.66,7.27.63,1.37-.78,1.91-1.84,1.11l-9.99-9.25c-4.18-.95-8.11-2.81-11.84-4.87-1.51-.83-5.05-3.68-6.2-3.97-3.68-.93-10.36.52-14.42-.11-1.06-.17-1.84-.7-2.02-1.79-.39-1.13-.33-8.39.24-8.47,1-.14,1.24,1.81,1.22,2.47.06,1.77.23,3.51.48,5.21l-.48.23c.06-.83.31-.99.44-.18l40.6.36-.46-.56.08-4.91c-5.59.27-11.16.04-16.68-.71-.98.16-1.33-1.5-.64-1.99,1.42.41,2.19.21,3.54-.19,4.66-.96,9.42-.9,14.13-.42-.5-4.22-.56-8.49.4-12.66Z"/>
      <path class="cls-12" d="M94.28,166.93c.29.06.41.18.36.36.42-.02.69.23.79.76,12.18.06,24.37.05,36.55-.04l.44.73c-.32.12-.67.56-1.23.39-34.82-.13-69.67.08-104.47-.03-1.01-.33.19-2.12,1.09-2.18.54-1.03,1.86-1.06,2.36,0,.03-.29.13-.72.33-.73,2.62-.09,19.77-.52,20.67,0l.43.73c-.31-2.08,1-6.05,3.72-5.83l24.31.04c1.68.89,2.7,2.58,3.07,5.07,4.01-.33,7.87-.09,11.57.72Z"/>
      <path class="cls-73" d="M116.44,32.17c.55-.76,1.53-.03,2.06.51,3.37,3.36,1.97,8.52-1.4,11.29,4.96,2.61,3.68,9.81-.66,12.32,3.38,3.27,3.85,9.02-.76,11.35-.05.39-.2.62-.44.7,6.09-.37,12.22-.43,18.27.52.92.42.92.69,0,1.09-1.41-.14-1.41-.02,0,.36.89-.56,1.22.08.36.73-6.27,1.01-12.62.99-18.89,0,1.19.53,1.14,4.99,0,5.63l.26-.72c13.33.18,26.65.36,39.99.54l.43.73-41.04-.18v-5.45c0-.23-.91-.43-1.04-.62-.16-.23.6-1.2-.41-1.38.27,2.45-.38,5.65,0,7.99-.92-1.21.01-9.46-.36-9.81-7.51.64-8.74-9.61-2.18-11.63-.36-.86-1.45-.77-2.16-1.28-4-2.85-1.99-8.52,1.05-11.28l-.03-.46c-.2-.12-.55-.23-.68-.41-.62-.85-2.69-3.32-1.27-3.99.49-.23.72.46.9.72,3.6,2.48,8.5,3.14,8.3-2.74-.46-.76-.56-1.42-.31-1.98.48-.75-.12-1.58-.27-2.38l.27-.16Z"/>
      <path class="cls-75" d="M157.85,4.56c1.09,3.85-.06,9.33.37,13.44,2.66-1.92,6.71-1.34,8.52,1.47s4.41,13.15,5.65,17.05c.47,1.96.42,5.94-1.45,2.54-1.91-6.17-3.95-12.33-6.09-18.43-2.66-3.06-6.7-1.51-6.65,2.64.07,5.99,1.85,14.28,2.57,20.51.81,2.43-.21,4.92-2.32,1.99-.02-1.56-.21-3.07-.58-4.53.41,1.84.65,3.73.73,5.67l-.73.51c.37-1.77,2.67.2,2.54,1.45-.9.88-2.04.64-2.15.75-.5.52-.01,3.38-.01,4.13,0,7.15.07,14.3,0,21.45,0,.61.23,1.61-.37,1.99.74-6.19-.55-13.74,0-20.08l-1.82-1.35c-1.08-15.33-1.17-30.81,0-46.13l-4.67-.89-2.96.16v-1.09c.32-.33,5.01.52,5.81-.36.91-.52,1.27-1.22,1.09-2.08l.73-.47c.19-.03.99-1.23,1.82-.36Z"/>
      <path class="cls-72" d="M84.47,15.1c-.63-2.79,1.62-.49,2.54.73.26.76.65,1.57.74,2.35.56,5.04.61,19.72-.04,24.68s-5.25,9.15-9.96,9.66c-8.5.92-18.51-.75-27.17.07-4.93,3.38-9.44,8.98-14.24,12.28-5.54,3.81-4.85-3.22-4.9-6.54.17-.42.51-.72,1.01-.89l.16-5.87.64-.5c.71-.57,1.01-.16,1.11.66-.15,3.66-.16,7.32-.02,10.99,4.92-4.51,10.01-8.82,15.26-12.94,8.3-.24,16.6-.22,24.91.07,9.46-.24,10.43-5.85,10.67-13.78.18-5.8.12-11.67-.35-17.41-.63-1.47-.75-2.65-.37-3.54Z"/>
      <path class="cls-41" d="M10.74,151.31l.38-.87c.41-5.91-.64-12.73.02-18.52.07-.57.13-1.99,1.04-1.67.08,1.2-.38,2.77.73,3.63.71.58.71,1.23,0,1.82-.3,2.89-.31,5.82,0,8.72.95,1.86.91,3.76.28,5.7,9.72-.48,19.44-.32,29.14.48,1.06.21,2.26,1.11,1.45,2.18-1.89.35-3.8.7-5.73.73l-25.47.13-9.27,12.63c6.73-.3,13.44-.08,20.12.68.84-.12,1.23,1.93.36,2.18-.78,0-1.54-.39-2.36-.39-6.1-.02-12.76,1.11-18.9.4-2.27-.26-3.17-1.98-2.13-3.96,2.32-4.43,7.75-9.3,10.31-13.84Z"/>
      <path class="cls-21" d="M55.42,8.2c.1.52-1.75.17-1.65.18,1.6-.04,3.02.27,4.24.92l18.77-.06c.82.04,1.2.29.8,1.13l-.25.73h-44.17c-7.3,1.6-7.57,7.46-7.81,13.74-.19,5.08-.28,10.74.18,15.77.32,3.4.93,6.24,3.9,8.34l.2,1.02c-.08,1.27-2.07,1-2.91.36-.12.32-.24.32-.36,0-2.28-2.06-3.41-5.13-3.65-8.16-.36-4.61-.58-22.63.66-26.24.94-2.73,3.03-5.09,5.55-6.44,3.28-1.76,5.01-1.17,8.51-1.29,5.24-.18,10.62-.43,15.99-.37.61,0,1.61-.23,1.99.37Z"/>
      <path class="cls-37" d="M122.25,141.14l.38.09c.06,3.37.17,6.72.34,10.08,3.07,4.71,7.67,9.31,10.7,14.18.54,1.51.13,2.75-1.25,3.25h-37.96s.18-1.45.18-1.45c12.28-.05,24.51-.18,36.69-.36-3.35-4.2-6.59-8.6-9.72-13.19l-.09-.97-23.1-.18c-.82-.7.19-1.55,1.18-1.42,7.06-.32,14.13-.51,21.19-.57.2-3.11.26-6.25.18-9.4.18-.74.88-.43,1.27-.04Z"/>
      <path class="cls-27" d="M122.98,137.87c-.68,2.23-1.38,1.11-2.18-.36l-.73-.25v-45.07l.73-.44c-.04-.9.74-1.17,1.45-1.45.45.93.64,1.22.75,2.34,1.32,14.34-1.03,30.69-.02,45.24Z"/>
      <path class="cls-54" d="M173.83,41.25c2.72,9.01,5.27,15.9,5.1,25.62-.01.82-.52,1.75-.33,2.45.25.92,5.87,5.74,2.98,6.37-1.15.25-3.01-3.19-3.94-3.92-.53,0-.93,3-2.86,2.56-1.46-.33,1.24-4.11,1.5-5.02,2.1-7.59-1.69-18.15-3.9-25.51-.07-.49-.06-.88.32-1.11-.99-1.63-.15-3.39,1.13-1.43Z"/>
      <path class="cls-6" d="M106.63,72.85c-1.41,0-2.07.44-2.91,1.45-14.03-.28-28.1.21-42.13,0l3.55-.6.81-1.21c13.27-.02,26.54.03,39.81-.02.47-.12.64.24.87.39Z"/>
      <path class="cls-63" d="M55.42,8.2c1.45-.04,2.91,0,4.36,0,5.45-.13,10.9-.13,16.35,0,5.14.23,9.16,2.56,10.9,7.63-1.34.08-2.53-2.68-2.54-.73l-.83.04c-1.41-1.91-3.48-3.4-5.79-3.98l-.28-.78c-.38-.6-1.38-.36-1.99-.37-8.05-.1-16.11.09-24.16,0l5.81-.73-3.63-.73c-.02-.66,1.35-.35,1.81-.36Z"/>
      <path class="cls-38" d="M10.01,70.31c-.44-.43,1.55-9.73,2.22-10.68.78-1.11,1.85-.52,2.06.61-1.2,2.2-1.21,7.66-2.17,9.45-.48.9-1.2.61-2.11.62Z"/>
      <path class="cls-59" d="M153.46,136.81c.06.05.36.99.32,1.19-.2.95-5.9,6.54-7,7.15-1.23.68-1.97.11-1.59-1.21.13-.46,6.1-6.48,6.64-6.81.42-.25,1.24-.59,1.62-.32Z"/>
      <path class="cls-62" d="M84.29,2.39c-.91-.26-.61-1.79.44-2.1,1.19-.35,4.28-.06,5.75-.06.81,0,4.15-.77,4.52.54.16.56-.62,1.62-.9,1.62-2.04,0-8.4.41-9.81,0Z"/>
      <path class="cls-76" d="M171.6,104.5c.52.81-2.21,8.78-2.91,9.89s-1.74,1.29-2.07-.02c-.14-.56,3.24-10.1,3.8-10.23.18-.04,1.13.29,1.18.37Z"/>
      <path class="cls-53" d="M163.18,121.56c.82-.21,1.64.56,1.42,1.42s-4.01,6.71-4.79,7.59c-1.18,1.35-1.91,1.66-2.28-.42,1.21-1.09,4.81-8.37,5.64-8.59Z"/>
      <path class="cls-25" d="M17.34,46.41c.85-.49,1.84.07,1.76,1.17-.06.79-1.86,4.95-2.72,4.95-2.67,0,.58-5.9.96-6.12Z"/>
      <path class="cls-51" d="M74.58,1.75c.82-.1,1.77-.35,2.47.25,1.41,1.94-6.04,3.5-6.35,1.61-.19-1.11,3.09-1.76,3.89-1.86Z"/>
      <path class="cls-61" d="M134.26,153.46c-1.69-1.18,4.42-5.23,5.26-3.98,1.21,1.79-4.44,4.55-5.26,3.98Z"/>
      <path class="cls-9" d="M174.16,91.05c.32.54-.22,5.67-.66,5.98-2.61,1.88-1.61-4.21-1.32-5.33.27-1.02,1.71-1.12,1.99-.65Z"/>
      <path class="cls-48" d="M9.88,77.59c1.71-.28,1.94,6.52-.04,6.53-1.47,0-1.3-6.31.04-6.53Z"/>
      <path class="cls-28" d="M101.96,2.7c-.15-.25-.2-1.72.16-1.77,1.23.03,5.99-.1,5.98,1.64,0,.46-.52,1.11-.96,1.19-.26.05-5.03-.83-5.17-1.06Z"/>
      <path class="cls-71" d="M120.8,137.51l1.64,1.08.54-.71c-.61,1.41.01,2.54.02,3.8,0,3.21-.04,6.43-.02,9.64-1.07-1.64.2-7.5-.73-10.17-.94.15-1.19-.27-.73-1.09-1.21.03-1.76-1.92-.73-2.54Z"/>
      <path class="cls-21" d="M76.12,8.2c-5.31-.24-11-.02-16.35,0h16.35Z"/>
      <path class="cls-22" d="M105.91,83.38v16.35c-3.14,0-6.3-.01-9.44,0l-29.97.15c-3.4.64-6.82.74-10.25.33-.78-4.82-1.71-8.8-6.57-10.85-7.19-3.04-15.17,1.94-14.63,10.03-.18,1.31-2.51,1.56-2.87.34-.49-.14-4,.2-4,0v-16.35c10.41-.04,20.83.06,31.24,0l.81-.75c7.79-.66,16.24-.39,24.37-.12.71.02,1.42.29,2.12.64,6.4-.02,12.8.06,19.19.24Z"/>
      <path class="cls-11" d="M12.92,133.87c-.03-13.49.03-27,0-40.5-.29-1.59,2.47-4.9,3.81-4.9h9.26v3.63h-7.81c-.69,0-2.22,1.82-2.01,2.72.15,16.35-.17,32.7,0,49.05,0,.61-.23,1.62.37,1.99.87.68,1.87,1.12,2.99,1.32l.27.5,1.46-.41c14.41-.08,28.81-.1,43.21-.07l1.46.48c16.35-.79,32.67-1.02,48.98-.71.9-.02,1.88-.35,1.89-1.31v-32.82c.09-2.45.32-4.88.71-7.3-.01-2.26.39-11.23-.4-12.49-.16-.26-1.04-.95-1.23-.95h-7.81v-3.63h8.9c1.04,0,3.28,2.29,3.81,3.27v45.77c.17.91.36,1.68.73,2.54.12.56.15,1.26-.55,1.25.09,3.11.03,6.2-.17,9.28-24.82.69-49.65,1.28-74.46,0-1.32.71-2.68.71-4,0-9.8,0-19.62,0-29.42,0,0-2.05.02-4.12,0-6.18-.31-2.9-.3-5.82,0-8.72,0-.61,0-1.21,0-1.82Z"/>
      <path class="cls-2" d="M105.54,74.67c.79.26.16,5.42.37,6.54-2.3,0-4.61-.01-6.9,0-14,.81-28.19,1.49-42.13,0-1.31-.31-2.69-.32-4,0h-2.91c-7.24-.02-14.63.31-21.79-.36v-6.17h77.37Z"/>
      <path class="cls-22" d="M18.37,103c.02-2.18-.35-5.9,0-7.81.06-.3.29-.91.54-.91h7.08c.01,5.44-.01,10.9,0,16.35.71.46.71.99,0,1.45,1.08,11.11,1.04,22.31,0,33.42-2.66.19-5.36.27-8.11.26-.37-14.27-.6-28.57.49-42.76Z"/>
      <path class="cls-5" d="M32.17,99.73c.68-.09,1.48.07,2.18,0-.93-15.84,22.68-16.04,22.15,0,13.31-.04,26.64.04,39.96,0l-34.87.36c-.13,1.05,0,1.18.99,1.35,13.61,1.07,28.64-1.08,42.09.08.7.06.67.07,1.23.39l-.25.73-49.29.02c-3.96,7.94-13.7,9.27-19.95,3.02-.85-.85-2.44-2.8-1.33-3.76-1-.26-6.48-.42-7,.08-.02,2.79-.11,5.55-.26,8.28.42,1.39-1.64,1.97-1.45.36l.06-9.74c1.52-1.26,3.16-.6,4.87-.78.47-.05.79-.37.88-.38Z"/>
      <path class="cls-13" d="M99,81.21c-1.16.74-2.79.24-4.14.4-1.95.23-3.81.54-5.81.73-.49.05-2.22.2-2.4.68,5.75.06,11.51-.06,17.26,0,.61,0,1.62-.23,1.99.37-13.51.2-27.02-.41-40.51-.39-1.9,0-4.04.38-5.98.39-2.33-.83-5.18-.14-7.63-.37l1.81-1.45-3.63-.37c.97,0,1.94,0,2.91,0,1.32-.31,2.67-.31,4,0,13.83.03,28.12.08,42.13,0Z"/>
      <path class="cls-4" d="M18.37,103c-.14,14.16.11,28.34,0,42.5h7.63c.22.87-.41,1.25-1.87,1.15l-3.46-.09c.25.88.05,1.06-.85,1.11-1.56-.08-2.86.21-3.27-1.82v-37.05s1.45,2.18,1.45,2.18c.23-2.57-.47-5.54.37-7.99Z"/>
      <path class="cls-68" d="M156.03,9.65c-.05,15.37.06,30.76,0,46.13-.02,4.35.01,8.72,0,13.08-4.84,0-9.69-.02-14.53,0-2.68.45-5.36.79-7.99,0-6.17-.01-12.36,0-18.53,0-.52-2.25.82-1.73,1.82-2.82,2.89-3.15,1.43-7.67-1.82-9.89,3.79-1.21,5.82-6.36,3.79-9.79-.66-1.11-2.5-1.96-2.69-2.21-.52-.68.57-.78.9-1.07,2.63-2.37,3.77-6.12,1.58-9.21-.78-1.1-1.23-1.06-2.12-1.7-.4-.29-.88-.41-1.28-.72l-.18-21.81h41.05Z"/>
      <path class="cls-11" d="M156.03,4.93v2.54c-.6.02-1.21-.03-1.82,0-12.91.6-26.27-.45-39.23,0,.04-1.27-.49-3,1.26-2.92,12.6,0,25.21.07,37.81,0,.7,0,1.88.39,1.98.38Z"/>
      <path class="cls-14" d="M112.81,28.54c-3.35-1.91-12.79-5.6-8-10.72,2.36-2.52,8,0,8,1.1v9.63Z"/>
      <path class="cls-45" d="M116.44,34.71c1.7,1.69,1.25,4.15-.06,5.94-1.71,2.34-5.88,1.33-7.68-.48-.36-.37-.21-.67-.25-.74-.09-1.38.93-5.07,2.03-5.78,1.53-.97,4.69-.21,5.96,1.05Z"/>
      <path class="cls-67" d="M117.53,105.54c.08,13.38-.08,26.77.02,40.15,0,1.42-1.48,2.04-2.72,2-16.29-.04-32.59,0-48.87-.02-.53-.42-.41-1,.36-1.73,13.19-.22,26.39-.37,39.6-.45.13-11.58.26-23.33.36-35.23.64,1.02-.08,1.44,1.48,1.65l-.04,32.69c.05.4-.16.71.38.89.34.11,6.92.12,7.26,0l.37-42.13c1.35.32,1.27,1.16,1.81,2.18Z"/>
      <path class="cls-44" d="M106.27,110.26c.07,11.45-.07,22.91.02,34.36.06.47-.1.59-.38.87l-.73-.25v-42.9l.73-.44c.24.14.54.16.58.51-.37,2.59-.24,5.24-.22,7.84Z"/>
      <path class="cls-2" d="M133.87,71.03c1.56-.72,3.16-.72,4.72,0,5.81.01,11.63,0,17.44,0-.13.99.33,5.87-.37,6.18l-40.68-.54v-5.63c6.29,0,12.6.01,18.89,0Z"/>
      <path class="cls-11" d="M43.79,152.76c1.82-.55,3.76-.55,5.81,0,17.11-.9,34.27-1.18,51.37-.16l20.55.16c2.72,3.93,5.97,7.55,8.65,11.51.45.67,1.8,2.08,1.16,2.66-12.36.37-24.71.37-37.05,0-3.91-.02-7.84.06-11.76-.05-1.05-.35-1.15-4.84-2.96-5.03l-24.35-.03c-2.68-.17-2.24,3.57-3.61,5.11h-21.43c-.73,0-1.56,0-2.36,0-.48,0-.97,0-1.45,0-.46.71-.99.71-1.45,0-.48,0-.97,0-1.45,0-7.02-.01-14.05.01-21.07,0l.35-1.28,9.53-12.81c10.5-.16,21.02-.06,31.52-.08Z"/>
      <path class="cls-45" d="M54.33,166.93c-.14-.14.49-2.41.69-2.69.68-.98,20.87.31,23.77-.23l.97,2.92h-25.43Z"/>
      <path class="cls-30" d="M131.33,166.93c-.27.24-.37.46-.87.38-11.5-.85-24.49,1.07-35.81-.02-.17-.02-.33-.19-.36-.36,12.34.06,24.71-.04,37.05,0Z"/>
      <path class="cls-14" d="M111.25,45.32c3.91-.87,7.36,2.19,5.56,6.29-1.45,3.29-4.49,3.1-7.17,1.35-2.39-1.56-.69-7.12,1.61-7.63Z"/>
      <path class="cls-24" d="M111.26,58.02c5.41-1.09,7.03,7.72,1,7.59-5.66-.12-3.95-7-1-7.59Z"/>
      <path class="cls-56" d="M133.51,70.31c-2.25,1.03-5.25.04-7.46-.01-2.37-.06-5.83,1.36-7.79-1.07,4.57.25,9.49-.34,14.02-.03.73.05.89.06,1.24.75.02.12-.02.25,0,.36Z"/>
      <path class="cls-56" d="M117.53,70.67c-.58.57-2.16-.56-2.18-1.45.93-.5,3,.64,2.18,1.45Z"/>
      <path class="cls-22" d="M77.57,10.38c2.45.3,5.7,2.61,6.9,4.72.38.67,1,2.65,1.09,3.45.57,5.14.58,18.48,0,23.61-.43,3.85-4.31,7.73-8.17,8.17-8.56.97-18.78-.8-27.52.09-5.54,4.06-10.38,9.01-15.71,13.34-.53-.34-.5-.7-.56-1.25-.31-2.79.05-6.53.02-9.47,0-.61.23-1.62-.37-1.99-.93.36-3.32-.12-3.63-1.09-2.96-1.88-4.43-4.63-4.74-8.16-.49-5.66-.49-16.51.02-22.16.42-4.67,3.46-8.45,8.17-9.27h44.5Z"/>
      <path class="cls-50" d="M29.63,49.97c.79.01,3.46.37,3.63,1.09.44,1.84-.33,5.23,0,7.27-.6.02-1.21-.03-1.82,0-.03-1.93.04-3.87-.02-5.8-1.6-.19-3.84-.75-4.71-2.19.46-.09,2.55-.37,2.91-.36Z"/>
      <path class="cls-47" d="M12.92,144.41c-.61-2.6-.61-6.12,0-8.72,0,2.9-.02,5.82,0,8.72Z"/>
      <path class="cls-29" d="M120.8,150.58c-.35.35-.36.33-.87.38-4.15.46-9.19-.32-13.48-.02-1.83.13-4.48.55-6.5.76-.35.04-1.37.16-1.3.69l22.88.37c-23.97.03-47.95-.03-71.92,0-1.42-.95-3.83.23-3.27-2.18,24.81.03,49.65-.02,74.46,0Z"/>
      <path class="cls-27" d="M122.25,141.14c-.12.64-1.02-.22-1.09.18-.34,1.84.57,8.33-.36,9.26.21-3.01-.27-6.33-.02-9.3.06-.73.05-.89.75-1.24.04.1.44.26.73,1.09Z"/>
      <path class="cls-42" d="M26.36,166.93c-.24,1.95-2.44,1.81-1.45,0,.48,0,.97,0,1.45,0Z"/>
      <path class="cls-39" d="M26,145.5l.2-1.06c-.2-5.3,2.06-2.3,1.98,1.06l.25-.73h77.03l.45.73c-.28.28-.4.44-.87.38l-37.76-.04-1.33,1.83c-15-.01-31.3.81-46.13,0,.92-1.37-1.23-1.08-1.45-1.81,1.55-.28,6.74.52,7.63-.37Z"/>
      <path class="cls-26" d="M37.86,76.54c3.17-1.11,3.02,3.3.31,2.87-1.44-.23-1.55-2.43-.31-2.87Z"/>
      <path class="cls-17" d="M33.57,76.54c1.15.73,0,3.97-2.13,2.68-1.96-1.19.43-3.75,2.13-2.68Z"/>
      <path class="cls-1" d="M43.66,76.53c2.32-.78,3.57,1.76,1.57,2.68-2.12.98-2.92-2.22-1.57-2.68Z"/>
      <path class="cls-47" d="M56.87,81.21c-1.33,0-2.67,0-4,0,.85-.6,3.07-.62,4,0Z"/>
      <path class="cls-64" d="M26,112.08c1.04-.14,1.06,1.49,2.18,1.82,1.08,10.48,1.15,21.13,0,31.6-.74-.26.12-3.17-1.81-3.27-.14,1.04.38,2.51-.37,3.27-.02-11.13.02-22.28,0-33.42Z"/>
      <path class="cls-31" d="M52.84,102.97l-4.69-.7c-.3-.28,1.63-2.45,1.88-3.02,1.24-2.82.21-6.72-2.72-7.95-4.51-1.89-7.9,1.83-7.44,6.32.19,1.83,1.62,3,2.1,4.65-3.62.69-5.12,1.39-5.46-3.07-1.13-14.66,23.89-10.42,16.32,3.77Z"/>
      <path class="cls-45" d="M47.33,93.65c.61.58.92,3.24.8,4.06-.33,2.23-4.07,4.03-.84,6.34l3.41,1.13c-3.3,1.64-7.69,2.53-10.53-.35,1.99-.3,4.71-1.17,3.92-3.74-.21-.67-1.84-2.34-1.99-3.4-.06-.42.32-2.87.52-3.31.63-1.4,3.79-1.61,4.73-.72Z"/>
      <path class="cls-47" d="M35.08,101.91c-.46-.31-5.8.23-6.9,0,0,2.78.01,5.58,0,8.36h-.36c.29-1.52-.46-7.49.16-8.38.38-.54,6.12-.57,7.11.02Z"/>
      <path class="cls-35" d="M122.14,14.44l28.08.1c.28.23.45.55.56.89.43,1.33.38,11.45.17,13.28-.11,1-.36,2.07-1.62,2.01l-27.45-.2c-.61-.34-.66-.82-.74-1.44-.18-1.41-.11-13.37.2-14,.15-.3.48-.56.8-.65Z"/>
      <path class="cls-70" d="M141.14,45.61h-17.98c-.72,0-.72-2.18,0-2.18h17.43c.7,0,1,1.56.54,2.18Z"/>
      <path class="cls-40" d="M123.16,36.53h17.43c.06,0,.84.76.88.96.11.37-.78,1.22-.88,1.22h-17.43c-.6,0-.87-1.83,0-2.18Z"/>
      <path class="cls-49" d="M141.14,52.51h-17.98c-.71,0-1.17-1.95,1.43-2.2,4.92-.48,10.63.4,15.64.02,1.18.22,1.24,1.25.91,2.18Z"/>
      <path class="cls-55" d="M141.14,57.6c.45.29.14,2.29-.91,2.18-5.01-.38-10.72.5-15.64.02-2.61-.25-2.14-2.2-1.43-2.2,2.32,0,17.23-.49,17.98,0Z"/>
      <path class="cls-16" d="M146.32,59.32c-.86-.82-.26-1.87.86-1.98.42-.04.92.24,1.4.25.89.01,2.17-.82,2.33.98.11,1.24-3.69,1.62-4.59.75Z"/>
      <path class="cls-60" d="M146.28,45.56c-.11-.07-.39-.95-.35-1.17.29-1.64,6.15-1.45,4.49.88-.31.44-3.79.52-4.15.29Z"/>
      <path class="cls-58" d="M150.58,52.51c-1.28-.24-5.02.84-4.65-1.22.29-1.6,5.54-1.56,4.65,1.22Z"/>
      <path class="cls-18" d="M146.84,36.6c1.3-.39,4.35-.44,3.71,1.52s-7.34-.44-3.71-1.52Z"/>
      <path class="cls-32" d="M132.06,75.39v-1.82h5.63c.68,0,.68,1.82,0,1.82h-5.63Z"/>
      <path class="cls-19" d="M41.25,154.58c2.71,0,4.76.73,7.06-.03l71.06.19c1.07,1.77-.09,1.93-1.64,2.04-23.43,1.68-48.85-1.29-72.48-.02-.33-.46-.81-.46-1.45,0-.36,0-.73,0-1.09,0-1.09-.21-2.2-1.1-1.45-2.18Z"/>
      <path class="cls-36" d="M120.8,158.57c.19.04.26.24.36.36.38.62-.63,1.29-1.21,1.29-25.47.07-51.58.1-76.6-.04-1.27-.01-2.74-.59-1.43-1.65,25.81-.29,53.03-.42,78.87.04Z"/>
      <path class="cls-34" d="M120.8,158.57l-77.57-.02c-2.12.23-1.05,1.31.72,1.49,2.9.29,6.76-.02,9.81,0,22.05.14,44.1-.16,66.14,0l1.25-1.11c.79.95.21,1.42-.89,1.47-28.4-.08-56.8.05-85.19-.02-1.33-.14-1.42-1.76,0-1.82,2.42-.09,5.19-.38,7.79-.38,25.3-.05,50.64-.25,75.94.01.61,0,1.62-.23,1.99.37Z"/>
      <path class="cls-52" d="M39.8,154.58c1,.14,1.98,1.36,1.09,2.18-8.57-.02-17.24.16-25.79-.18-1.17-.96-1.05-1.83.52-2.01,6.81-.8,16.96.02,24.17.02Z"/>
      <path class="cls-46" d="M35.08,158.57c-.44.57-.21,1.19,0,1.82-6.37-.02-15.25.73-21.27.02-2.08-.25-1.46-1.97.36-2.21,4.58-.61,12.17-.01,17.11,0,1.36,0,1.94.45,3.8.38Z"/>
      <path class="cls-65" d="M44.77,20.22c1-.26,2.09,1.08,1.23,1.98l-9.1,7.61,9.1,7.61c.79.71-.03,2.04-.94,2.03-.74,0-11.09-8.9-11.09-9.64,0-1.38,9.42-8.04,10.8-9.59Z"/>
      <path class="cls-8" d="M64.75,20.22c.56-.14.66.12,1.03.31,1.17.62,4.55,3.67,5.79,4.75.84.73,4.56,3.76,4.56,4.53s-10.32,9.5-11.15,9.57-1.65-1.31-.87-1.97l9.1-7.61-9.27-7.8c-.49-.61.17-1.62.81-1.78Z"/>
      <path class="cls-57" d="M58.69,17.28c.93.87-4.38,22.11-4.77,25.01-1.45.27-2.13.21-1.97-1.41l4.98-23.55,1.77-.05Z"/>
      <path class="cls-33" d="M101.18,116.44c-1.29.63-2.85.84-4.66.64,1.02.01,1.49.41,1.39,1.17-.85.31-1.72.62-2.63.63-9.21.14-18.52.27-27.68-.11l-1.3-.52.73.34v19.57l-.73.43.25-.73h32.73l.44.73-.73-.34v-19.57l.73-.43.73.32c.12,6.64.23,13.29.35,19.94l-.72.45-.25.73h-32.73l-.44-.73c1.63.98.17,2.25-1.41,1.33l-.77.48c-.72-.4-.68-1.26-.74-1.98-.45-5.3-.43-15.05,0-20.37.05-.61.06-1.65.62-2.01l36.81.03Z"/>
      <path class="cls-7" d="M101.18,116.44c.26.03.77-.18.73.22v24.12s-37.42,0-37.42,0v-2.54c1.27.56,2.09,4.28,2.18.73h33.42l-.36-20.7c-.47,1.01-1.36,1.03-1.82,0-2.39-1.21-5.57.11-8.17-.37-.62-.11-1.02-.39-.91-1.09,3.93.05,8.45-.86,12.35-.37Z"/>
      <path class="cls-69" d="M54.64,133.1c-.16.25-1.51.4-1.93.43-2.49.18-13.54.32-15.27-.38s-.74-2,.71-2.19c2.88-.38,12.37-.36,15.29,0,1.19.15,1.8,1.19,1.2,2.15Z"/>
      <path class="cls-66" d="M66.23,104.89c5.43-.74,6.42,6.83,2.01,7.84-6.39,1.47-7.52-7.09-2.01-7.84Z"/>
      <path class="cls-15" d="M54.69,137.51c.01.91.27,2.07-.91,2.18-4.9-.37-10.47.49-15.28.02-2.61-.25-2.14-2.2-1.43-2.2h17.62Z"/>
      <path class="cls-64" d="M54.69,112.44c.07,1.53.32,1.93-1.3,2.14-3.29.42-11.52.39-14.89.06-2.61-.25-2.14-2.2-1.43-2.2h17.62Z"/>
      <path class="cls-74" d="M36.89,126.97c-.48-.33-.17-2.18.54-2.18h16.71c.72,0,.72,2.18,0,2.18-2.23,0-16.54.48-17.25,0Z"/>
      <path class="cls-43" d="M37.44,118.62h16.71c.72,0,.72,2.18,0,2.18h-16.71c-.06,0-.84-.76-.88-.96l.88-1.22Z"/>
      <path class="cls-20" d="M78.66,105.9c3.58.18,7.18.25,10.79.22l.13.87c.79-.16,1.27.08,1.43.73-.42,0-1.54.35-2.54.36-1.98.02-14.78.26-15.22-.4-1.6-2.38,4.3-1.77,5.41-1.78Z"/>
      <path class="cls-77" d="M78.66,105.9c6.21-.07,12.43.07,18.65-.02.53.13.63,1.38.24,1.83-2.32.77-4.38-.04-6.54,0h-3.27s1.09-.36,1.09-.36v-1.09c-.36-.38-8.92.55-10.17-.36Z"/>
      <path class="cls-78" d="M82.11,110.26c.92.26.6,1.8-.44,2.1-.91.27-7.63.19-8.25-.25s-.05-1.85.33-1.85c1.81,0,7.07-.36,8.35,0Z"/>
      <rect class="cls-22" x="123.34" y="16.55" width="25.06" height="11.99"/>
      <path class="cls-22" d="M97.91,118.25c.6.03,1.21-.02,1.82,0v20.34h-33.42v-20.34c10.44.36,21.2-.48,31.6,0Z"/>
      <path class="cls-3" d="M66.58,107.05c2.17-.34,3.25,2.91,1.3,3.5-3.61,1.09-3.97-3.09-1.3-3.5Z"/>
    </g>
  </g>
</svg>