<svg width="74" height="50" viewBox="0 0 74 50" fill="none" xmlns="http://www.w3.org/2000/svg">
<g clip-path="url(#clip0_117_113)">
<path d="M4.91071 46.7262L3.2738 26.2649H22.9167L21.2798 46.7262L13.0952 49.1815L4.91071 46.7262Z" fill="#E44D26"/>
<path d="M21.2797 27.9018H13.0952L13.0952 47.9538L19.6428 45.9077L21.2797 27.9018Z" fill="#F16529"/>
<path d="M7.7753 38.1324L6.95685 30.3571H19.6429L19.2336 32.8125H9.41221L9.82143 35.6771H18.8244L18.006 43.4524L13.0952 45.0893L8.18453 43.4524L7.7753 39.3601H10.2307L10.6399 41.4062L13.0952 42.2247L15.5506 41.4062L15.9598 38.1324H7.7753Z" fill="white"/>
</g>
<g clip-path="url(#clip1_117_113)">
<path d="M31.8453 20.8333L30.3572 2.23215L48.2143 2.23215L46.7262 20.8333L39.2857 23.0655L31.8453 20.8333Z" fill="#1172B8"/>
<path d="M46.7262 3.72025L39.2858 3.72025V21.9494L45.2381 20.0893L46.7262 3.72025Z" fill="#33AADD"/>
<path d="M41.8899 13.0208H34.4494L34.0774 10.4167L40.0298 8.55654H34.0774L33.7054 6.3244L45.2381 6.3244L44.8661 8.92857L40.0298 10.7887H44.4941L43.75 17.8571L39.2857 19.3452L34.8215 17.8571L34.4494 14.1369H36.6816L37.0536 15.997L39.2857 16.7411L41.5179 15.997L41.8899 13.0208Z" fill="white"/>
</g>
<rect x="53.7203" y="28.7202" width="18.75" height="18.75" fill="#FFCA28"/>
<path d="M65.1042 44.3147L66.4847 43.4012C66.5929 43.7411 67.278 44.5483 68.1434 44.5483C69.0087 44.5483 69.4105 44.0757 69.4105 43.7623C69.4105 42.9084 68.5269 42.6073 68.1024 42.4627C68.0333 42.4391 67.9763 42.4197 67.9373 42.4028C67.9173 42.3941 67.8871 42.3825 67.8483 42.3677C67.3763 42.1873 65.6348 41.522 65.6348 39.5933C65.6348 37.469 67.6849 37.2247 68.1485 37.2247C68.4518 37.2247 69.9102 37.2619 70.6365 38.6268L69.2972 39.5615C69.0036 38.9667 68.5158 38.7702 68.2155 38.7702C67.4737 38.7702 67.3192 39.3139 67.3192 39.5615C67.3192 40.256 68.1251 40.5673 68.8055 40.8302C68.9836 40.899 69.153 40.9644 69.2972 41.0326C70.039 41.3831 71.131 41.9566 71.131 43.7623C71.131 44.6667 70.3724 46.131 68.4627 46.131C65.8975 46.131 65.2175 44.5908 65.1042 44.3147Z" fill="#3E3E3E"/>
<path d="M58.4078 44.496L59.8466 43.583C59.9594 43.9228 60.3975 44.5491 61.0331 44.5491C61.6688 44.5491 61.9941 43.8962 61.9941 43.583V37.4256H63.7637V43.583C63.7923 44.4323 63.3213 46.131 61.2425 46.131C59.3312 46.131 58.5366 44.995 58.4078 44.496Z" fill="#3E3E3E"/>
<defs>
<clipPath id="clip0_117_113">
<rect width="26.1905" height="26.1905" fill="white" transform="translate(0 23.8095)"/>
</clipPath>
<clipPath id="clip1_117_113">
<rect width="23.8095" height="23.8095" fill="white" transform="translate(27.381)"/>
</clipPath>
</defs>
</svg>
