<svg width="48" height="49" viewBox="0 0 48 49" fill="none" xmlns="http://www.w3.org/2000/svg">
<path d="M3.87804 26.1866C2.70732 25.0129 2.70732 23.1099 3.87804 21.9362L21.8802 3.88798C23.0509 2.71426 24.9491 2.71426 26.1198 3.88798L44.122 21.9362C45.2927 23.1099 45.2927 25.0129 44.122 26.1866L26.1198 44.2348C24.9491 45.4085 23.0509 45.4085 21.8802 44.2348L3.87804 26.1866Z" fill="#EE513B"/>
<path d="M18.2239 7.61188L16.4009 9.43955L21.1093 14.1599C20.9189 14.5696 20.8125 15.0265 20.8125 15.5083C20.8125 16.8762 21.6697 18.0433 22.875 18.4992V30.0465C21.6697 30.5024 20.8125 31.6695 20.8125 33.0374C20.8125 34.8023 22.2396 36.2331 24 36.2331C25.7604 36.2331 27.1875 34.8023 27.1875 33.0374C27.1875 31.7973 26.4829 30.7221 25.4531 30.1924V18.5149L29.9539 23.0272C29.7727 23.4286 29.6719 23.8741 29.6719 24.3433C29.6719 26.1083 31.099 27.539 32.8594 27.539C34.6198 27.539 36.0469 26.1083 36.0469 24.3433C36.0469 22.5784 34.6198 21.1477 32.8594 21.1477C32.5173 21.1477 32.1878 21.2017 31.8789 21.3017L27.0451 16.4556C27.1377 16.1563 27.1875 15.8381 27.1875 15.5083C27.1875 13.7434 25.7604 12.3127 24 12.3127C23.671 12.3127 23.3537 12.3626 23.0551 12.4554L18.2239 7.61188Z" fill="white"/>
</svg>
