<svg width="48" height="46" viewBox="0 0 48 46" fill="none" xmlns="http://www.w3.org/2000/svg">
<path fill-rule="evenodd" clip-rule="evenodd" d="M23.5823 0C10.5599 0 0 10.5575 0 23.5823C0 34.002 6.75705 42.8412 16.127 45.9599C17.3052 46.1785 17.7379 45.4483 17.7379 44.8254C17.7379 44.2631 17.716 42.4054 17.7059 40.4349C11.1452 41.8614 9.76087 37.6525 9.76087 37.6525C8.68813 34.9267 7.14248 34.2019 7.14248 34.2019C5.00247 32.7383 7.30376 32.7687 7.30376 32.7687C9.67144 32.9347 10.9187 35.1989 10.9187 35.1989C13.022 38.8033 16.4355 37.7614 17.7812 37.1593C17.9929 35.6351 18.604 34.5944 19.2785 34.0055C14.0405 33.4099 8.53388 31.3875 8.53388 22.3514C8.53388 19.7767 9.45549 17.6731 10.964 16.0212C10.7188 15.4276 9.91161 13.0291 11.1921 9.78079C11.1921 9.78079 13.172 9.14699 17.6785 12.1981C19.56 11.6752 21.5778 11.4124 23.5823 11.4034C25.5856 11.4124 27.6046 11.6744 29.4896 12.1973C33.9906 9.1462 35.9682 9.78001 35.9682 9.78001C37.2518 13.0279 36.4446 15.4268 36.1998 16.0204C37.7118 17.6723 38.6268 19.776 38.6268 22.3506C38.6268 31.4082 33.11 33.4021 27.8588 33.9863C28.705 34.7182 29.4587 36.1537 29.4587 38.3535C29.4587 41.5088 29.4314 44.0483 29.4314 44.825C29.4314 45.4526 29.8563 46.1879 31.0512 45.9563C40.4157 42.8346 47.165 33.9981 47.165 23.5823C47.1646 10.5583 36.6059 0 23.5823 0Z" fill="black"/>
<path d="M8.93167 33.8587C8.87973 33.9758 8.69541 34.011 8.52749 33.9309C8.35566 33.8544 8.25999 33.6947 8.31544 33.5771C8.36621 33.4561 8.55092 33.4229 8.72157 33.5037C8.8934 33.5806 8.99103 33.7419 8.93128 33.8591L8.93167 33.8587ZM9.88687 34.9244C9.77479 35.0286 9.55493 34.9802 9.40575 34.815C9.25111 34.651 9.22221 34.4312 9.33663 34.3253C9.453 34.2215 9.66622 34.2707 9.82087 34.4347C9.97473 34.601 10.0052 34.8189 9.88726 34.9248L9.88687 34.9244ZM10.8171 36.2822C10.6726 36.3829 10.4359 36.2888 10.2899 36.0791C10.1454 35.869 10.1454 35.6172 10.2938 35.5168C10.4394 35.416 10.6726 35.507 10.821 35.7148C10.9647 35.9276 10.9647 36.1799 10.8171 36.2822ZM12.0905 37.5947C11.9617 37.7372 11.686 37.699 11.4845 37.5049C11.2787 37.3147 11.2212 37.0441 11.3505 36.9019C11.4817 36.759 11.7586 36.7988 11.9613 36.9918C12.1671 37.1815 12.2292 37.4526 12.0913 37.5943L12.0905 37.5947ZM13.8478 38.3566C13.7904 38.5413 13.5257 38.6253 13.2582 38.5464C12.9914 38.4655 12.8169 38.2496 12.8716 38.0629C12.9262 37.8767 13.1929 37.7896 13.462 37.8735C13.7287 37.954 13.9033 38.1688 13.8478 38.3566ZM15.7781 38.4976C15.7848 38.692 15.5583 38.8529 15.2783 38.8568C14.9959 38.8635 14.7675 38.7057 14.7648 38.5144C14.7648 38.3179 14.9866 38.159 15.2685 38.1535C15.5485 38.1485 15.7785 38.3047 15.7785 38.4972L15.7781 38.4976ZM17.5737 38.1922C17.6073 38.3816 17.4124 38.5765 17.134 38.6284C16.8606 38.6792 16.6068 38.5612 16.5717 38.3734C16.5381 38.1789 16.7365 37.984 17.0098 37.9337C17.2886 37.8856 17.5386 37.9997 17.5737 38.1922Z" fill="black"/>
</svg>
