<svg width="58" height="44" viewBox="0 0 58 44" fill="none" xmlns="http://www.w3.org/2000/svg">
<path d="M13.0318 43.2601V21.0728L0 11.0867V39.5683C0.0738346 42.3888 2.49192 43.2047 3.69173 43.2601H13.0318Z" fill="#4285F4"/>
<path d="M13.0133 3.98007V21.0543L0 11.2343V4.93992C0.457774 2.35571 2.41808 0.946701 3.34101 0.565222C6.04336 -0.601364 8.35561 0.4114 9.17394 1.06361L13.0133 3.98007Z" fill="#C5221F"/>
<path d="M28.7586 15.7936L12.9949 3.96863V21.0613L28.7586 32.8124L44.4853 21.0727V4.07232L28.7586 15.7936Z" fill="#EA4335"/>
<path d="M44.4853 20.9989V3.99847L48.8784 0.768209C51.3888 -0.782317 54.0715 0.368272 55.099 1.13738C57.0039 2.2449 57.554 4.65068 57.5909 5.71512V11.2343L44.4853 20.9989Z" fill="#FBBC04"/>
<path d="M44.5038 43.2415V20.9988L57.5725 11.2527V39.8451C57.5418 40.0789 57.3584 40.757 56.8711 41.5987C56.3838 42.4404 54.9576 43.0446 54.3054 43.2415H44.5038Z" fill="#34A853"/>
</svg>
