<svg width="48" height="49" viewBox="0 0 48 49" fill="none" xmlns="http://www.w3.org/2000/svg">
<rect x="3" y="3.4552" width="42" height="42.1074" fill="#FFCA28"/>
<path d="M28.5 38.476L31.5923 36.4246C31.8346 37.1879 33.3692 39.0008 35.3077 39.0008C37.2462 39.0008 38.1462 37.9393 38.1462 37.2356C38.1462 35.3179 36.1668 34.6418 35.2161 34.3171C35.0611 34.2641 34.9334 34.2205 34.8462 34.1824C34.8014 34.1629 34.7337 34.1369 34.6468 34.1036C33.5895 33.6986 29.6885 32.2044 29.6885 27.8732C29.6885 23.1025 34.2808 22.5539 35.3192 22.5539C35.9986 22.5539 39.2654 22.6374 40.8923 25.7025L37.8923 27.8016C37.2346 26.4658 36.1419 26.0246 35.4692 26.0246C33.8077 26.0246 33.4615 27.2458 33.4615 27.8016C33.4615 29.3614 35.2667 30.0605 36.791 30.6509C37.1898 30.8053 37.5693 30.9523 37.8923 31.1053C39.5538 31.8925 42 33.1805 42 37.2356C42 39.2667 40.3008 42.5549 36.0231 42.5549C30.2769 42.5549 28.7538 39.0962 28.5 38.476Z" fill="#3E3E3E"/>
<path d="M13.5 38.8834L16.723 36.833C16.9756 37.5959 17.9569 39.0026 19.3808 39.0026C20.8047 39.0026 21.5335 37.5363 21.5335 36.833V23.0051H25.4973V36.833C25.5614 38.7403 24.5063 42.5549 19.8498 42.5549C15.5685 42.5549 13.7886 40.0039 13.5 38.8834Z" fill="#3E3E3E"/>
</svg>
