<svg width="48" height="49" viewBox="0 0 48 49" fill="none" xmlns="http://www.w3.org/2000/svg">
<path d="M28.0183 24.0252C28.0183 21.868 26.2194 20.1191 24 20.1191C21.7808 20.1191 19.9817 21.868 19.9817 24.0252C19.9817 26.1825 21.7808 27.9314 24 27.9314C26.2194 27.9314 28.0183 26.1825 28.0183 24.0252Z" fill="#53C1DE"/>
<path fill-rule="evenodd" clip-rule="evenodd" d="M37.0505 16.7734C37.8992 13.4214 38.9658 7.20563 35.2056 5.09827C31.463 3.0001 26.5927 7.02057 24.0209 9.43387C21.4566 7.04463 16.4495 3.04133 12.6924 5.15538C8.95126 7.26059 10.105 13.3733 10.9724 16.7463C7.48247 17.7098 1.5 19.7851 1.5 24.0252C1.5 28.2532 7.47624 30.5111 10.9455 31.4737C10.0749 34.8653 8.97894 40.8907 12.7249 42.9912C16.4959 45.1048 21.4875 41.1969 24.083 38.7572C26.6713 41.1847 31.4949 45.1182 35.2383 43.0119C38.9935 40.8988 38.0154 34.7663 37.1479 31.3738C40.5109 30.4091 46.5 28.2004 46.5 24.0252C46.5 19.8258 40.4855 17.7337 37.0505 16.7734ZM36.6244 29.5759C36.0548 27.8234 35.286 25.9597 34.3456 24.0345C35.2432 22.1547 35.9821 20.3151 36.5357 18.5737C39.0538 19.2834 44.5778 20.9053 44.5778 24.0252C44.5778 27.1743 39.277 28.8116 36.6244 29.5759ZM34.2749 41.3947C31.4821 42.9661 27.3332 39.2045 25.4218 37.4168C26.6898 36.0687 27.957 34.5014 29.1937 32.761C31.3693 32.5734 33.4246 32.2666 35.2884 31.8479C35.8989 34.2475 37.0803 39.816 34.2749 41.3947ZM13.6854 41.3722C10.8921 39.8066 12.1689 34.4298 12.8093 31.9315C14.6525 32.3278 16.6929 32.6129 18.8736 32.7848C20.1185 34.4878 21.4224 36.0532 22.7364 37.424C21.1129 38.9505 16.4918 42.9451 13.6854 41.3722ZM3.42223 24.0252C3.42223 20.8642 8.9131 19.2541 11.4886 18.5462C12.0518 20.3267 12.7904 22.1882 13.6818 24.0707C12.7789 25.9812 12.0297 27.8723 11.4613 29.6737C9.00554 28.9904 3.42223 27.1881 3.42223 24.0252ZM13.6556 6.77262C16.4603 5.19452 20.8121 9.03782 22.6738 10.7677C21.3666 12.1323 20.0747 13.6858 18.8405 15.379C16.7241 15.5696 14.6981 15.8759 12.8356 16.2861C12.1369 13.5657 10.8539 8.34901 13.6556 6.77262ZM30.5689 17.4101C32.0048 17.5862 33.3803 17.8205 34.6721 18.1072C34.2843 19.3154 33.801 20.5787 33.2318 21.8738C32.4066 20.3518 31.5208 18.8605 30.5689 17.4101ZM24.0215 12.1031C24.9081 13.0367 25.7962 14.0794 26.6697 15.2105C24.8978 15.1291 23.123 15.1288 21.3511 15.2094C22.2253 14.0887 23.1209 13.0476 24.0215 12.1031ZM14.7848 21.8725C14.2249 20.5818 13.746 19.3129 13.3548 18.0874C14.6388 17.8081 16.008 17.5799 17.4345 17.4066C16.4799 18.8539 15.5956 20.3446 14.7848 21.8725ZM17.4755 30.7771C16.0018 30.6172 14.6119 30.4006 13.3283 30.129C13.7257 28.8819 14.2152 27.5856 14.7869 26.2673C15.609 27.8109 16.5067 29.3162 17.4755 30.7771ZM24.0747 36.0793C23.1636 35.1236 22.2548 34.0666 21.3672 32.9296C23.1493 32.9977 24.9347 32.9978 26.7165 32.9205C25.8402 34.0782 24.9553 35.1367 24.0747 36.0793ZM33.2501 26.2001C33.8515 27.5328 34.3586 28.8221 34.7613 30.0481C33.4564 30.3375 32.0478 30.5706 30.5635 30.7436C31.5225 29.2658 32.4223 27.7512 33.2501 26.2001ZM28.1209 30.9701C25.3952 31.1594 22.6523 31.1574 19.9257 30.9856C18.3763 28.7856 16.9972 26.472 15.8066 24.0701C16.9913 21.6731 18.3605 19.3641 19.9026 17.1675C22.6313 16.967 25.3767 16.9665 28.1054 17.1687C29.6341 19.3651 31.0013 21.6682 32.2135 24.0436C31.0156 26.4393 29.6393 28.7531 28.1209 30.9701ZM34.2455 6.71706C37.0509 8.28998 35.8021 13.8763 35.1893 16.3055C33.3224 15.8867 31.295 15.5751 29.1724 15.3815C27.9359 13.67 26.6547 12.1137 25.3686 10.7667C27.2543 8.9996 31.4671 5.15952 34.2455 6.71706Z" fill="#53C1DE"/>
</svg>
