<?xml version="1.0" encoding="UTF-8"?>
<svg id="katman_2" data-name="katman 2" xmlns="http://www.w3.org/2000/svg" viewBox="0 0 276.77 254.37">
  <defs>
    <style>
      .cls-1 {
        fill: #41afe4;
      }

      .cls-2 {
        fill: #724a98;
      }

      .cls-3 {
        fill: #fff;
      }

      .cls-4 {
        fill: #724997;
      }

      .cls-5 {
        fill: #f9b029;
      }

      .cls-6 {
        fill: #e94361;
      }

      .cls-7 {
        fill: #ceb9db;
      }

      .cls-8 {
        fill: #fffefe;
      }

      .cls-9 {
        fill: #e94462;
      }

      .cls-10 {
        fill: #e94362;
      }

      .cls-11 {
        fill: #f9af29;
      }
    </style>
  </defs>
  <g id="katman_1" data-name="katman 1">
    <g>
      <path class="cls-4" d="M271.14,208.11c-1.97,2.32-8.31-3.07-6.04-5.4-.34,0-.85-.08-.86-.29-.11-2.09-.43-16.37,0-17.11l.86-.51-.42.86H12.22l-.54-.86.86.4v25.21l-.86.51.9.11c2.15,4.33,4.37,7.06,9.29,7.38,6.15.4,13.36.52,19.95.52,66.36-.22,132.28-.3,197.77-.25,4.93-.37,9.03,3.8,6.52,8-.53,1.13-2.23,4.32-3.67,4.32h-74.69s-.65.6-.65.65v11.01h24.39c.15,0,2.07.89,2.36,1.1,3.68,2.65,2.59,9.07-1.86,10.2-35.2.81-70.54.19-105.79.31-5.32-.18-7.51-7.46-3.27-10.51.29-.21,2.21-1.1,2.36-1.1h24.39v-11.01s-.6-.65-.65-.65H19.23C10.77,230.99-.07,219.05.03,210.48l-.03-189.11C.77,12.59,6.37,4.99,14.58,1.85,19.69-.1,23.9.77,29.14,0h224.54c12.17.84,21.57,8.63,23.1,20.94v182.21c-.23,2.76-2.98,4.96-5.63,4.95Z"/>
      <path class="cls-7" d="M246.1,226.68c.42-3.06-.74-6.36-4.13-6.88-4.87-.75-9.84.04-14.67,0-61.42-.55-122.9-.23-184.31,0-5.48.02-11.4-.23-16.84-.47-4.63-.21-7.21.69-10.98-2.83-.84-.79-3.5-4.66-3.5-5.57v-26.12h253.42v17.92c0,2.74,3.31,5.4,6.04,5.4-.13,4.06-1.55,7.33-3.45,10.79l-.99.18c-4.03-4.07-10.5.78-8,5.84l-.51.88c-.63-.57-.86-.69-1.72-.68-1.81.01-8.57-.06-9.66.23-.22.06-.55.97-.71,1.32Z"/>
      <path class="cls-2" d="M267.69,218.91c5.23,6.35-5.6,13.56-9.5,6.91-3.76-6.42,4.88-12.52,9.5-6.91Z"/>
      <path class="cls-3" d="M265.1,173.57H12.32s-.65-.6-.65-.65V20.96c0-.18,1.14-2.94,1.37-3.38,2.09-3.92,6.2-5.61,10.48-5.92h230.14c3.95-.42,11.43,5,11.43,8.87v153.05Z"/>
      <path class="cls-8" d="M155.44,230.99c-.24.55.43,1.28.43,1.51v10.15h-34.54c-.57-3.84-.73-7.84,0-11.66h34.11Z"/>
      <path class="cls-4" d="M131.15,196.56c2.33-.48,10.71-.37,13.31-.12,7.18.7,7.26,10.7.37,11.64-2.34.32-12.36.34-14.31-.29-5.09-1.66-4.69-10.14.63-11.23Z"/>
      <path class="cls-9" d="M39.19,23.44l198.07-.11c5.96.72,6.9,9.19,1.31,11.26-66.58.76-133.44.53-200.05.12-5.64-1.9-5.3-10.26.68-11.26Z"/>
      <path class="cls-6" d="M36.43,151.71c.59-.52,1.37-.83,2.09-1.15,65.9-.69,131.93-.08,197.89-.31,6.51.04,8.14,8.87,2.16,11.26-65.97.97-132.15.12-198.2.43-5.4.06-7.95-6.7-3.93-10.23Z"/>
      <path class="cls-1" d="M39.64,63.57c2.95-.33,5.68,1.84,6.48,4.55l.14,34.4c2.31,10.22,16.31,9.59,17.25-1.24.88-10.18-1.01-21.89-.04-31.98.63-6.53,8.61-7.65,11.49-1.94v38.04c-3.64,15.78-22.74,21.67-34.57,10.35-10.51-10.05-4-33.9-5.83-47.3.13-2.19,2.99-4.64,5.09-4.87Z"/>
      <path class="cls-5" d="M206.67,106.94c.82-.93,1.73-2.71,1.89-3.94,1.25-10.17-1.01-22.87-.03-33.27.74-7.87,11.05-7.79,11.69-.87-.77,11.32.96,23.83,0,35.01-1.86,21.53-34.94,24.27-40.04,2.01-1.35-5.9-1.29-30.03-.56-36.57.77-6.86,9.52-7.55,11.56-1.19,1.04,10.71-1.04,23.07.1,33.58.83,7.67,10.19,11.09,15.4,5.25Z"/>
      <path class="cls-1" d="M102.4,78.52c.25.15.99.17,1.18.03.58-.39,4.83-10.9,6.15-12.63,4.01-5.25,12.65-1.24,10.08,6.19-2.31,6.67-7.7,13.69-10.11,20.51l10.67,22.13c1.22,5.78-6.74,9.06-10.27,5.08-1.69-1.91-5.99-13.06-7.12-13.6l-6.76,12.66c-3.78,5.48-12.76,2.06-10.19-5.87,1.95-6.02,7.69-13.15,9.5-19,.14-.46.42-.88.36-1.39-2.02-6.84-7.72-13.79-9.86-20.39-2.48-7.65,6.11-11.98,10.35-5.6,1.1,1.66,5.45,11.54,6.03,11.88Z"/>
      <path class="cls-10" d="M164.81,46.74c5.56-1.27,9.31,3.33,7.15,8.45l-28.83,79.96c-3.5,7.17-12.95,3.15-10.81-4.34l28.94-80.72c.59-1.18,2.26-3.06,3.55-3.36Z"/>
      <path class="cls-11" d="M234.32,64.01c3.66-.83,7.13.65,7.91,4.43v47.94c-.81,6.74-10.87,7.01-11.67-.44-1.56-14.55,1.17-31.79,0-46.63.1-1.99,1.72-4.84,3.76-5.3Z"/>
    </g>
  </g>
</svg>