<svg width="74" height="50" viewBox="0 0 74 50" fill="none" xmlns="http://www.w3.org/2000/svg">
<rect x="0.547302" y="0.5" width="72.1509" height="49" stroke="#3E373B"/>
<rect x="5.53491" y="4.66669" width="23.9378" height="39" stroke="#3E373B"/>
<path d="M5.4505 43.75L29.557 4.58331M29.557 43.75L5.4505 4.58331" stroke="#7286D3"/>
<path d="M36.2071 4.58331H53.2479" stroke="#3E373B"/>
<path d="M36.2071 7.91656H68.2106M36.2071 10.8332H68.2106M36.2071 13.7499H68.2106M36.2071 16.6666H61.9762M36.2071 19.5832H68.2106" stroke="#7286D3"/>
<rect x="37.1227" y="22.1667" width="12.3002" height="3.16667" rx="0.5" fill="#7286D3" stroke="#3E373B"/>
<rect x="55.4106" y="22.1667" width="12.3002" height="3.16667" rx="0.5" stroke="#3E373B"/>
<rect x="37.1227" y="29.6666" width="30.5879" height="14" stroke="#3E373B"/>
<path d="M52.4167 37.4999C47.6889 43.3333 41.0562 42.6388 37.454 43.3333V29.5833H67.795C64.0544 30.9721 57.8199 30.8333 52.4167 37.4999Z" fill="#7286D3" stroke="#3E373B"/>
</svg>
