<?xml version="1.0" encoding="UTF-8"?>
<svg id="katman_2" data-name="katman 2" xmlns="http://www.w3.org/2000/svg" viewBox="0 0 137.21 126.17">
  <defs>
    <style>
      .cls-1 {
        fill: #eec6df;
      }

      .cls-2 {
        fill: #3a70b6;
      }

      .cls-3 {
        fill: #5fa5db;
      }

      .cls-4 {
        fill: #ba4c96;
      }

      .cls-5 {
        fill: #b24693;
      }

      .cls-6 {
        fill: #83b7e4;
      }

      .cls-7 {
        fill: #d169a6;
      }

      .cls-8 {
        fill: #de9cc5;
      }

      .cls-9 {
        fill: #4a91ce;
      }

      .cls-10 {
        fill: #3562ac;
      }

      .cls-11 {
        fill: #fafcfc;
      }
    </style>
  </defs>
  <g id="katman_1" data-name="katman 1">
    <path class="cls-7" d="M15.28.73c.74.08.91.23.49.88-2.63,1.47-4.36,3.49-3.92,6.7.73,5.42,5.96,5.58,10.37,5.46,3.22-.27,6.36-.15,9.41.35,4.28-.65,8.58-.65,12.86,0l2.27-.52c5.09.22,10.17.24,15.25.04,6.68-.1,8.47-9.29,2.31-11.82-.5-.62-.14-.99,1.08-1.1,5.8-.53,11.62-.53,17.42,0,1.48.45.02,1.38-.88,1.76-3.61,3.07-3.25,9.35,1.61,10.85,2.33.72,11.49.73,13.83.01,5.08-1.55,5.36-8.24,1.3-11.15-1.04-.21-2.32-1.14-.85-1.47C109.38.12,120.95-.05,132.54.22c2.4.41,4.56,1.95,4.67,4.53v44.76h-.67c-1.64-3.69-6.7-5.67-9.72-2.71l-.6.03-.63.07c-.73-.75-3.82-4.54-3.85-5.26,2.37-3.32,4.86-6.57,7.48-9.75,1.36-1.44-4.1-5-4.93-5.15-2.43,2.02-4.58,4.48-6.44,7.37-.47.58-.96,1.06-1.69.58l-5.48-6.8c-1.33-3.05-6.98,2.13-6.64,3.71,2.59,3.26,5.07,6.57,7.44,9.95l-.04.55c-2.31,3.27-4.75,6.48-7.33,9.61-1.11,1.49,4.68,5.22,5.24,4.98,2.38-2.37,4.57-4.96,6.58-7.76.36-.47.85-.51,1.32-.15l6,7.56c.61.13.89.44.83.93.4.91.56,3.9-.2,4.58-.59.53-4.91.41-5.69-.29-1.46.31-2.93.5-4.42.57-7.26.32-14.89.08-22.11-.57l-1.26.5c-3.7-.16-7.4-.14-11.09.06-6.42,1.45-6.7,9.53-.9,12.21l-.15.63-.25.54h-14.44l-.32-.54c-.38-.42-.26-.86.35-1.31,4.62-2.59,3.96-9.91-1.15-11.36-2.69-.76-13.56-.71-16.14.26-4.95,1.88-5.3,8.62-.68,11.13.51.42.74.78.2,1.28,0,.21-.06.53-.19.54-14.12.17-28.95.31-43.1,0-1.22.2-2.06.02-2.54-.54V4.75C.49.56,4.03.16,7.55.04c2.23-.08,5.05-.04,7.25.16l.47.54Z"/>
    <path class="cls-6" d="M45.83,74.97l.25-.54h16.85l.32.54h15.01c.05-.71.23-.71.54,0l.05-.27h11.25c.13-.15.26-.27.39-.27,9.52-.1,19.11-.08,28.64,0,.15,0,.3.12.45.27h17.45s.19.27.19.27v17.15c-1.86,5.36-7.51,3.97-12.06,4.02l.2-.68c7.42-4.16,4.13-12.99-4.22-12.31-2.4.2-4.72.06-6.97-.41-5.4.77-10.94.78-16.35,0l-2.21.51c-4.25-.25-8.49-.26-12.72-.03-6.88.78-8.08,9.55-1.64,12.24l.23.68c-5.69.76-11.47.78-17.15,0l.32-.64c5.33-1.54,6.37-9.4.99-11.62-2.45-1.01-10.39-1.08-12.9-.09-5.37,2.13-4.78,9.85.55,11.66l.32.68c-2.41.53-4.83.53-7.24,0-13.89-.02-27.78.01-41.67,0-2.49-.28-3.74-1.91-4.69-4.02v-17.15h45.83Z"/>
    <path class="cls-5" d="M118.19,61.57c5.72,1.3,6.87,8.89,2.27,12.29l16.44.04.32.54v.54h-58.42c-.83-.25-.82-.93.07-1.07h10.58c-4.6-3.6-3.48-10.76,2.21-12.33,8.84-.05,17.7.1,26.53,0Z"/>
    <path class="cls-4" d="M137.21,49.51v24.92h-17.69c.42-1.34,1.89-1.9,2.55-3.21,1.48-2.95.53-6.44-2.03-8.43-.58-.45-1.49-.5-1.86-1.22.91-.01,4.98.16,5.38-.12.7-.49-.2-3.36.52-4.17l.19-.55c1.21-.33,5.01-3.18,5.13-4.25-.81-1.8-1.92-3.46-3.33-4.98l.16-.67c.77-2.09,4.06-2.08,5.91-1.76,2.69.46,3.62,2.47,5.08,4.44Z"/>
    <path class="cls-11" d="M91.65,28.2c.18-1.03.99-1.63,2-1.75,1.48-.17,5.49-.42,5.98,1.27v22.12c-1.59,7.26-7.81,8.23-14.29,7.72-4.82-.38-8.67-3.79-8.98-8.71l.13-21.06c.33-1.88,5.99-1.58,6.95-1.03.27.15.97.97.97,1.18v20.9s.41.47.54.53c.47.22,5.07.26,5.75.13.29-.06.94-.46.94-.66v-20.64Z"/>
    <path class="cls-11" d="M22.51,28.2c.11-.63.79-1.61,1.48-1.73.85-.16,5.32-.11,5.91.24.21.12.53.51.6.74v22.66c-.87,3.72-3.97,6.78-7.85,7.16-5.86.58-13.14.34-15.01-6.42-.93-3.37-.74-18.08-.41-22.12.1-1.15.19-2.05,1.5-2.25,1.15-.18,6.55-.42,6.55,1.19v20.9s.62.67.67.67h6.16s.4-.37.4-.4v-20.64Z"/>
    <path class="cls-11" d="M124.08,57.28c-.08,0-1.06-.44-1.19-.55l-6.17-7.76c-.45,0-4.78,6.1-5.62,6.97-.57.59-1.23,1.4-2.13,1.34-.67-.05-4.69-3.12-5.1-3.76-.44-.69-.61-1.29-.21-2.06,1.95-2.96,4.59-5.51,6.61-8.4.29-.42.76-.89.71-1.44-.1-1.09-6.42-7.78-7.21-9.43-1.28-1.83,2.1-4.14,3.47-5.03,1.93-1.26,2.25-1.29,3.87.38l5.61,6.96c1.74-1.31,5.6-8.17,7.53-8.3.73-.05,4.49,2.8,5.09,3.47.69.77.93,1.6.35,2.52l-7.45,9.45c-.06.32,3.49,4.52,4,5.19.86,1.13,3.81,4.54,3.7,5.7-.13,1.31-4.62,4.84-5.84,4.75Z"/>
    <path class="cls-4" d="M63.25,74.97h-17.42c-.17-.96-1.46-1.36-2.05-1.97-4.14-4.33-1.37-11,4.58-11.44,3.3-.25,9.95-.35,13.14.01,4.67.53,7.19,5.94,4.92,10.01-.8,1.43-2.44,2.04-3.18,3.39Z"/>
    <path class="cls-11" d="M63.98,22.75c.91-.16,6.29,1.38,5.42,3.28l-11.3,34.01c-1.1,1.92-7.7-.08-6.58-2.83l10.98-32.97c.18-.66.78-1.37,1.48-1.49Z"/>
    <path class="cls-8" d="M97.82.73c-.68.75.69.67,1.21,1.07,5.08,3.88,3.41,11.74-2.94,12.34-2.68.26-8.87.28-11.51-.04-5.97-.72-7.51-8.08-2.98-12.03.43-.38,1.82-.59,1.21-1.34,5,0,10.01,0,15.01,0Z"/>
    <path class="cls-1" d="M45.02.73c6.8,2.11,6.77,12.28-.54,13.4-4.28.01-8.58.02-12.86,0-7.35-.87-7.7-10.96-1.07-13.4,4.82-.01,9.65,0,14.47,0Z"/>
    <path class="cls-8" d="M65.39.73l-1.07.53c6.61,2.36,5.29,12.27-1.73,12.88-5.54.48-12.4-.03-18.1,0,4.4-1.53,6.57-6.35,3.87-10.43l-3.33-2.96c6.78,0,13.58,0,20.37,0Z"/>
    <path class="cls-11" d="M36.9,26.51c.54-.16,5.26-.16,5.79,0s.89.91.97,1.44l.02,27.06c.3,2.82-6.66,2.33-7.52,1.35-.27-.31-.44-.96-.5-1.38l-.03-26.51c-.02-.67.63-1.76,1.27-1.95Z"/>
    <path class="cls-8" d="M30.55.73l-3.17,3.13c-2.55,4.13-.21,8.92,4.24,10.27-3.75-.02-13.1.62-16.07-.41-3.84-1.33-5.44-6.08-3.44-9.59.75-1.32,1.8-1.84,2.93-2.71.38-.29.77.06.24-.69,5.09-.03,10.19.01,15.28,0Z"/>
    <path class="cls-4" d="M91.65,61.57l-3.06,2.44c-1.87,2.29-1.98,5.56-.27,8,.26.37,2.34,2.12,1.99,2.43-3.69.13-7.43-.18-11.12,0-.66.03-.88-.19-.4.54h-.54c-.76-.94-1.95-1.28-2.79-2.16-3.61-3.8-1.27-10.7,4-11.23,3.65-.37,8.4.02,12.19,0Z"/>
    <path class="cls-9" d="M53.6,96.14c3.57-.53,7.15-.53,10.72,0,5.71,0,11.44-.02,17.15,0,3.18-.73,6.45-.65,9.68-.31-.12,2.96-.22,5.93-.3,8.89-.06.21-.15.52-.31.54-1.19.13-7.98.12-8.67-.23-.15-.08-.3-.15-.39-.3-4.16.78-8.44.76-12.6,0l-1.24.52-7.72-.09c-8.99-.6-9.48,12.69-.44,12.32l7.91-.14,1.23.52c.61-.52,1.26-.52,1.88,0,.23.08.23.17,0,.27-7.95.86-16.16.76-24.12,0v-21.98c2.41,0,4.83,0,7.24,0Z"/>
    <path class="cls-6" d="M90.85,117.84c.05-.24.14-.23.27,0,1.25.04,4.06.09,5.21.28,3.48.58,3.23,8.26-.78,8.04l-54.4-.03c-3.25-.49-3.14-7.49-.27-8.01,1.4-.26,3.91,0,5.48-.01,8.03-.1,16.09,0,24.12,0,3.57-.17,7.15-.25,10.74-.24,3-.83,6.68-1,9.63-.03Z"/>
    <path class="cls-9" d="M114.17,82.74c7.41.97,7.47,12.46,0,13.4-5.53.02-11.08-.02-16.62,0-7.57-.94-7.33-12.75.27-13.4,5.44-.02,10.9-.04,16.35,0Z"/>
    <path class="cls-3" d="M97.82,82.74c-5.12,1.5-7.18,7.49-3.33,11.5.97,1.01,1.98,1.17,3.06,1.9-2.14,0-4.29,0-6.43,0v21.71c-.09,0-.18,0-.27,0-.79-4.34-.76-8.79,0-13.13-.01-2.85,0-5.72,0-8.58-3.12,0-6.26.01-9.38,0-3.53-1.4-5.76-4.54-4.79-8.41.6-2.42,2.99-4.62,5.49-4.96,4.29-.59,11.06,0,15.65-.02Z"/>
    <path class="cls-3" d="M125.15,96.14c-3.66.04-7.33-.01-10.99,0,6.81-2.5,6.74-10.87,0-13.4,4.04.03,11.04-.99,13.93,2.01,3.73,3.87,1.65,9.43-2.95,11.39Z"/>
    <path class="cls-3" d="M64.32,96.14c-3.57,0-7.15,0-10.72,0-7.52-2.34-6.66-12.83,1.46-13.41,2.73-.2,8.94-.34,11.22.86,5.55,2.93,4.03,11.21-1.96,12.55Z"/>
    <path class="cls-10" d="M81.47,104.71c6.09,1.99,6.22,11.24.09,13.15-3.7.13-7.39.12-11.08-.02-.62,0-1.25,0-1.88,0-5.95-2.03-5.71-11.33.27-13.13,4.19-.03,8.4,0,12.6,0Z"/>
    <path class="cls-2" d="M68.87,104.71l-2.37,2.05c-2.19,2.56-2.33,6.32-.18,8.94.69.85,1.66,1.29,2.28,2.14-2.92-.02-9.37.49-11.8-.13-5.54-1.41-6.17-10.65-.06-12.68,2.48-.83,9.12-.31,12.13-.33Z"/>
    <path class="cls-2" d="M90.85,104.71c.02,4.37-.02,8.76,0,13.13-6.49-.17-13.6.26-20.37.27v-.27c3.69-.02,7.38.02,11.07,0,.76-.93,1.8-1.29,2.59-2.28,2.12-2.66,1.81-6.62-.53-9.03-.66-.68-1.93-.95-2.15-1.82h9.38Z"/>
  </g>
</svg>