<?xml version="1.0" encoding="UTF-8"?>
<svg id="katman_2" data-name="katman 2" xmlns="http://www.w3.org/2000/svg" viewBox="0 0 158.66 154.99">
  <defs>
    <style>
      .cls-1 {
        fill: #eef2f2;
      }

      .cls-2 {
        fill: #5ebeb8;
      }

      .cls-3 {
        fill: #f2f2f2;
      }

      .cls-4 {
        fill: #ee7160;
      }

      .cls-5 {
        fill: #b7bdc4;
      }

      .cls-6 {
        fill: #cdd6df;
      }

      .cls-7 {
        fill: #436275;
      }

      .cls-8 {
        fill: #2e4556;
      }

      .cls-9 {
        fill: #acb3bb;
      }

      .cls-10 {
        fill: #436276;
      }

      .cls-11 {
        fill: #eef2f1;
      }

      .cls-12 {
        fill: #ee715f;
      }

      .cls-13 {
        fill: #edf2f1;
      }
    </style>
  </defs>
  <g id="katman_1" data-name="katman 1">
    <path class="cls-10" d="M136.35.96c4.67-.08,6.17,4.48,5.97,8.45,2.39-.19,4.77-.16,7.14.08l.21.76-.3.62H9.59c.09,5.07.09,10.15-.6,15.18.75,22.51.91,45.03.49,67.56h139.81s.39.62.39.62c.3.61-.06.91-1.07.91l-6.38-.07-.02,7.08c-.03.77-.07,1.41-.89,1.68-47.1.23-94.2.23-141.31,0V5.92C-.05,2.69,2.86.34,6.01.33c38.34-.07,76.68-.1,115.01-.04,2.55,0,5.11.11,7.66.23s5.11.27,7.66.44Z"/>
    <path class="cls-6" d="M0,104.15c46.42-.27,95.11-.27,141.62,0,.24,0,.61.06.62.21.11,1.68.31,10.31,0,11.35l-.62.37c1.24.61-.31,2.83-.97,3.62-.99,1.2-1.87,2-3.52,2-23.55-.04-47.19-.09-70.82-.2l-.22.39c-20.33-.24-40.71-.37-61.14-.39-2.76-.54-3.59-1.59-4.96-4.03v-13.32Z"/>
    <path class="cls-8" d="M158.66,5.61v98.23l-.29.62h-16.7c-.02-.29-.13-.5-.37-.62.7-2.96.13-6.25.31-9.3.33-.33,7.04.48,8.06-.31-1-22.7-.93-45.47,0-68.17-.86-5.24-.85-10.56,0-15.8-1.02-.79-7.73.02-8.06-.31.45-4.13-.93-8.01-5.27-8.99l.68-.62c3.95-.4,9.25-.41,13.25-.24s7.88.71,8.38,5.51Z"/>
    <path class="cls-9" d="M141.31,103.84h17.35v13.63c-1.17,2.22-2.79,4.01-5.42,4.34-19.71.58-39.86-.78-59.51,0-.6.02-1.24-.32-1.07.62-8.53-.02-17.18-.02-25.97,0l-.37-.62c-.27-.09-.27-.19,0-.31,23.39,0,46.79,0,70.19,0,2.31.12,5.11-3.39,5.11-5.42v-11.93H0v-.31h141.31Z"/>
    <path class="cls-6" d="M101.33,141.96c.17,0,.63.3,1.07.31,4.57.07,8.78-.73,12.27,2.93,2.42,2.53,4.82,9.33-.46,9.79l-70.6-.09c-4.29-1.45-1.81-7.53.54-9.85,3.56-3.51,7.54-2.71,12.11-2.78.44,0,.91-.31,1.07-.31.76-.17,1.52-.33,2.28-.44s1.53-.22,2.29-.23c11.6-.19,23.25-.17,34.85,0,.76.01,1.53.12,2.29.23s1.52.27,2.28.44Z"/>
    <path class="cls-7" d="M66.32,121.82l25.57-.02c.35-.05.66.38.77.64.71,1.68,1.14,4.18,1.85,6.05,1.8,4.71,3.98,9.3,6.82,13.47-14.44-.16-29.56-.16-44,0,4.03-5.94,6.78-12.61,8.68-19.52-.06-.69.05-.89.31-.62Z"/>
    <path class="cls-5" d="M66.32,121.51v.31c.02.25-.27.48-.31.62.17-.94-.47-.6-1.07-.62-19.51-.65-39.38.47-58.93.02-.42.17-.86-.3-1.05-.33h61.36Z"/>
    <path class="cls-3" d="M149.67,26.06c.05,22.72-.04,45.46,0,68.17H8.99c.04-22.72-.05-45.45,0-68.17l.3-.62h140l.39.62Z"/>
    <path class="cls-2" d="M149.67,10.26c0,5.26-.01,10.54,0,15.8H8.99c.01-5.26,0-10.54,0-15.81h140.69Z"/>
    <path class="cls-4" d="M86.99,37.59c1.6-.48,3.26.99,2.58,2.57l-18.66,37.14c-1.5,2.24-4.54.65-3.43-1.88l18.29-36.56c.28-.45.68-1.11,1.21-1.27Z"/>
    <path class="cls-12" d="M58.49,51.54c1.99-.5,3.6,1.75,2.57,3.52-.89,1.54-10.83,6.76-10.86,7.42l10.86,7.41c.95,1.56-.27,3.55-2.04,3.61-4.88-2.5-9.32-6.04-14.07-8.88-1.51-1.06-1.6-2.97-.19-4.17l13.72-8.92Z"/>
    <path class="cls-12" d="M106.6,62.93c.28-.39-.4-.84-.64-1.05-2.41-2.11-8.11-4.46-9.9-6.53-1.62-1.88.65-4.48,2.7-3.64,3.81,3.13,9.46,5.45,13.08,8.62,1.91,1.67,1.6,3.1-.31,4.6-3.8,2.98-8.91,5.27-12.77,8.31-2.01.86-4.38-1.82-2.68-3.61,1.39-1.46,6.51-4.28,8.56-5.69.4-.27,1.89-.91,1.95-1Z"/>
    <path class="cls-13" d="M109.93,15.89c3.8-.67,3.52,5.36-.32,4.22-1.65-.49-1.74-3.86.32-4.22Z"/>
    <path class="cls-11" d="M122.32,15.88c2.56-.47,3.66,3.67,1.1,4.23-3.49.77-3.8-3.73-1.1-4.23Z"/>
    <path class="cls-1" d="M134.41,15.89c2.92-.6,3.61,3.66,1.1,4.22-3.28.73-3.58-3.71-1.1-4.22Z"/>
  </g>
</svg>